<svg id="visual" viewBox="0 0 1920 200" width="1920" height="200" xmlns="http://www.w3.org/2000/svg" xmlns:xlink="http://www.w3.org/1999/xlink" version="1.1"><rect x="0" y="0" width="1920" height="200" fill="#001220"></rect><path d="M138 0L141.2 3.7C144.3 7.3 150.7 14.7 150 22C149.3 29.3 141.7 36.7 136.8 44.2C132 51.7 130 59.3 132 66.8C134 74.3 140 81.7 138.7 89C137.3 96.3 128.7 103.7 126.8 111C125 118.3 130 125.7 135.3 133.2C140.7 140.7 146.3 148.3 147.5 155.8C148.7 163.3 145.3 170.7 144 178C142.7 185.3 143.3 192.7 143.7 196.3L144 200L0 200L0 196.3C0 192.7 0 185.3 0 178C0 170.7 0 163.3 0 155.8C0 148.3 0 140.7 0 133.2C0 125.7 0 118.3 0 111C0 103.7 0 96.3 0 89C0 81.7 0 74.3 0 66.8C0 59.3 0 51.7 0 44.2C0 36.7 0 29.3 0 22C0 14.7 0 7.3 0 3.7L0 0Z" fill="#fe87e6"></path><path d="M127 0L122.8 3.7C118.7 7.3 110.3 14.7 110 22C109.7 29.3 117.3 36.7 118.3 44.2C119.3 51.7 113.7 59.3 113.5 66.8C113.3 74.3 118.7 81.7 120.7 89C122.7 96.3 121.3 103.7 122.2 111C123 118.3 126 125.7 126.5 133.2C127 140.7 125 148.3 124.2 155.8C123.3 163.3 123.7 170.7 120 178C116.3 185.3 108.7 192.7 104.8 196.3L101 200L0 200L0 196.3C0 192.7 0 185.3 0 178C0 170.7 0 163.3 0 155.8C0 148.3 0 140.7 0 133.2C0 125.7 0 118.3 0 111C0 103.7 0 96.3 0 89C0 81.7 0 74.3 0 66.8C0 59.3 0 51.7 0 44.2C0 36.7 0 29.3 0 22C0 14.7 0 7.3 0 3.7L0 0Z" fill="#fc67df"></path><path d="M82 0L82.8 3.7C83.7 7.3 85.3 14.7 85.3 22C85.3 29.3 83.7 36.7 80.5 44.2C77.3 51.7 72.7 59.3 70.2 66.8C67.7 74.3 67.3 81.7 71 89C74.7 96.3 82.3 103.7 87 111C91.7 118.3 93.3 125.7 94.7 133.2C96 140.7 97 148.3 97.7 155.8C98.3 163.3 98.7 170.7 93.5 178C88.3 185.3 77.7 192.7 72.3 196.3L67 200L0 200L0 196.3C0 192.7 0 185.3 0 178C0 170.7 0 163.3 0 155.8C0 148.3 0 140.7 0 133.2C0 125.7 0 118.3 0 111C0 103.7 0 96.3 0 89C0 81.7 0 74.3 0 66.8C0 59.3 0 51.7 0 44.2C0 36.7 0 29.3 0 22C0 14.7 0 7.3 0 3.7L0 0Z" fill="#fa3cd7"></path><path d="M64 0L65 3.7C66 7.3 68 14.7 65.7 22C63.3 29.3 56.7 36.7 56.3 44.2C56 51.7 62 59.3 62.5 66.8C63 74.3 58 81.7 58 89C58 96.3 63 103.7 65.8 111C68.7 118.3 69.3 125.7 68.3 133.2C67.3 140.7 64.7 148.3 62 155.8C59.3 163.3 56.7 170.7 57 178C57.3 185.3 60.7 192.7 62.3 196.3L64 200L0 200L0 196.3C0 192.7 0 185.3 0 178C0 170.7 0 163.3 0 155.8C0 148.3 0 140.7 0 133.2C0 125.7 0 118.3 0 111C0 103.7 0 96.3 0 89C0 81.7 0 74.3 0 66.8C0 59.3 0 51.7 0 44.2C0 36.7 0 29.3 0 22C0 14.7 0 7.3 0 3.7L0 0Z" fill="#db31bb"></path><path d="M38 0L37.7 3.7C37.3 7.3 36.7 14.7 34.7 22C32.7 29.3 29.3 36.7 28.3 44.2C27.3 51.7 28.7 59.3 29.3 66.8C30 74.3 30 81.7 29.2 89C28.3 96.3 26.7 103.7 26.5 111C26.3 118.3 27.7 125.7 30.8 133.2C34 140.7 39 148.3 38.2 155.8C37.3 163.3 30.7 170.7 27.8 178C25 185.3 26 192.7 26.5 196.3L27 200L0 200L0 196.3C0 192.7 0 185.3 0 178C0 170.7 0 163.3 0 155.8C0 148.3 0 140.7 0 133.2C0 125.7 0 118.3 0 111C0 103.7 0 96.3 0 89C0 81.7 0 74.3 0 66.8C0 59.3 0 51.7 0 44.2C0 36.7 0 29.3 0 22C0 14.7 0 7.3 0 3.7L0 0Z" fill="#bc27a0"></path></svg>