<svg id="visual" viewBox="0 0 550 1100" width="550" height="1100" xmlns="http://www.w3.org/2000/svg" xmlns:xlink="http://www.w3.org/1999/xlink" version="1.1"><rect x="0" y="0" width="550" height="1100" fill="#001220"></rect><defs><linearGradient id="grad1_0" x1="0%" y1="0%" x2="100%" y2="100%"><stop offset="30%" stop-color="#001220" stop-opacity="1"></stop><stop offset="70%" stop-color="#001220" stop-opacity="1"></stop></linearGradient></defs><defs><linearGradient id="grad2_0" x1="0%" y1="0%" x2="100%" y2="100%"><stop offset="30%" stop-color="#001220" stop-opacity="1"></stop><stop offset="70%" stop-color="#001220" stop-opacity="1"></stop></linearGradient></defs><g transform="translate(550, 0)"><path d="M0 275C-54.7 271.6 -109.5 268.3 -137.5 238.2C-165.5 208 -166.9 151.2 -185.3 107C-203.8 62.8 -239.4 31.4 -275 0L0 0Z" fill="#fa3cd7"></path></g><g transform="translate(0, 1100)"><path d="M0 -275C33.8 -243.6 67.6 -212.1 111.5 -193.1C155.4 -174.1 209.2 -167.6 238.2 -137.5C267.1 -107.4 271 -53.7 275 0L0 0Z" fill="#fa3cd7"></path></g></svg>