<svg id="visual" viewBox="0 0 900 300" width="900" height="300" xmlns="http://www.w3.org/2000/svg" xmlns:xlink="http://www.w3.org/1999/xlink" version="1.1"><rect x="0" y="0" width="900" height="300" fill="#001220"></rect><defs><linearGradient id="grad1_0" x1="66.7%" y1="0%" x2="100%" y2="100%"><stop offset="-10%" stop-color="#001220" stop-opacity="1"></stop><stop offset="110%" stop-color="#001220" stop-opacity="1"></stop></linearGradient></defs><defs><linearGradient id="grad2_0" x1="0%" y1="0%" x2="33.3%" y2="100%"><stop offset="-10%" stop-color="#001220" stop-opacity="1"></stop><stop offset="110%" stop-color="#001220" stop-opacity="1"></stop></linearGradient></defs><g transform="translate(900, 0)"><path d="M0 150C-14.3 125.6 -28.6 101.3 -53 91.8C-77.4 82.3 -112 87.8 -129.9 75C-147.8 62.2 -148.9 31.1 -150 0L0 0Z" fill="#fa3cd7"></path></g><g transform="translate(0, 300)"><path d="M0 -150C18.5 -133 37.1 -116 61 -105.7C84.9 -95.3 114.2 -91.5 129.9 -75C145.6 -58.5 147.8 -29.2 150 0L0 0Z" fill="#fa3cd7"></path></g></svg>