<svg id="visual" viewBox="0 0 900 300" width="900" height="300" xmlns="http://www.w3.org/2000/svg" xmlns:xlink="http://www.w3.org/1999/xlink" version="1.1"><g><g transform="translate(659 16)"><path d="M67.9 -21.9C77 6.2 66 40.9 41.4 59.4C16.8 77.8 -21.4 79.9 -45.2 62.5C-69 45.1 -78.5 8.3 -68.6 -20.9C-58.7 -50 -29.3 -71.4 0 -71.4C29.3 -71.4 58.7 -50 67.9 -21.9Z" fill="none" stroke="#fa3cd7" stroke-width="20"></path></g><g transform="translate(227 156)"><path d="M66.3 -20C75.7 7.5 66.1 42.7 43.3 59.2C20.4 75.8 -15.8 73.7 -40 55.9C-64.2 38.1 -76.5 4.6 -67.8 -21.8C-59.2 -48.2 -29.6 -67.6 -0.6 -67.4C28.4 -67.2 56.8 -47.4 66.3 -20Z" fill="none" stroke="#fa3cd7" stroke-width="20"></path></g><g transform="translate(887 296)"><path d="M63.5 -18.2C71.5 4 59.8 35.1 37.5 51.2C15.2 67.3 -17.7 68.4 -38.2 53.3C-58.7 38.3 -66.9 6.9 -58.5 -15.9C-50.1 -38.6 -25 -52.9 1.4 -53.3C27.8 -53.8 55.5 -40.4 63.5 -18.2Z" fill="none" stroke="#fa3cd7" stroke-width="20"></path></g></g></svg>