<svg id="visual" viewBox="0 0 450 900" width="450" height="900" xmlns="http://www.w3.org/2000/svg" xmlns:xlink="http://www.w3.org/1999/xlink" version="1.1"><rect x="0" y="0" width="450" height="900" fill="#001220"></rect><defs><linearGradient id="grad1_0" x1="0%" y1="0%" x2="100%" y2="100%"><stop offset="30%" stop-color="#001220" stop-opacity="1"></stop><stop offset="70%" stop-color="#001220" stop-opacity="1"></stop></linearGradient></defs><defs><linearGradient id="grad2_0" x1="0%" y1="0%" x2="100%" y2="100%"><stop offset="30%" stop-color="#001220" stop-opacity="1"></stop><stop offset="70%" stop-color="#001220" stop-opacity="1"></stop></linearGradient></defs><g transform="translate(450, 0)"><path d="M0 157.5C-22.1 144.2 -44.2 131 -69 119.5C-93.8 108 -121.2 98.4 -136.4 78.8C-151.6 59.1 -154.5 29.6 -157.5 0L0 0Z" fill="#fa3cd7"></path></g><g transform="translate(0, 900)"><path d="M0 -157.5C21 -142.4 42.1 -127.3 67 -116C91.9 -104.8 120.7 -97.4 136.4 -78.8C152.1 -60.1 154.8 -30 157.5 0L0 0Z" fill="#fa3cd7"></path></g></svg>