<svg id="visual" viewBox="0 0 1400 1300" width="1400" height="1300" xmlns="http://www.w3.org/2000/svg" xmlns:xlink="http://www.w3.org/1999/xlink" version="1.1"><rect x="0" y="0" width="1400" height="1300" fill="#FFFFFF"></rect><defs><linearGradient id="grad1_0" x1="7.1%" y1="0%" x2="100%" y2="100%"><stop offset="28.461538461538463%" stop-color="#fa3cd7" stop-opacity="1"></stop><stop offset="71.53846153846153%" stop-color="#fa3cd7" stop-opacity="1"></stop></linearGradient></defs><defs><linearGradient id="grad1_1" x1="7.1%" y1="0%" x2="100%" y2="100%"><stop offset="28.461538461538463%" stop-color="#fa3cd7" stop-opacity="1"></stop><stop offset="71.53846153846153%" stop-color="#fe64dd" stop-opacity="1"></stop></linearGradient></defs><defs><linearGradient id="grad1_2" x1="7.1%" y1="0%" x2="100%" y2="100%"><stop offset="28.461538461538463%" stop-color="#ff82e3" stop-opacity="1"></stop><stop offset="71.53846153846153%" stop-color="#fe64dd" stop-opacity="1"></stop></linearGradient></defs><defs><linearGradient id="grad1_3" x1="7.1%" y1="0%" x2="100%" y2="100%"><stop offset="28.461538461538463%" stop-color="#ff82e3" stop-opacity="1"></stop><stop offset="71.53846153846153%" stop-color="#ff9ee9" stop-opacity="1"></stop></linearGradient></defs><defs><linearGradient id="grad1_4" x1="7.1%" y1="0%" x2="100%" y2="100%"><stop offset="28.461538461538463%" stop-color="#ffb7ee" stop-opacity="1"></stop><stop offset="71.53846153846153%" stop-color="#ff9ee9" stop-opacity="1"></stop></linearGradient></defs><defs><linearGradient id="grad1_5" x1="7.1%" y1="0%" x2="100%" y2="100%"><stop offset="28.461538461538463%" stop-color="#ffb7ee" stop-opacity="1"></stop><stop offset="71.53846153846153%" stop-color="#ffd0f4" stop-opacity="1"></stop></linearGradient></defs><defs><linearGradient id="grad1_6" x1="7.1%" y1="0%" x2="100%" y2="100%"><stop offset="28.461538461538463%" stop-color="#ffe7fa" stop-opacity="1"></stop><stop offset="71.53846153846153%" stop-color="#ffd0f4" stop-opacity="1"></stop></linearGradient></defs><defs><linearGradient id="grad1_7" x1="7.1%" y1="0%" x2="100%" y2="100%"><stop offset="28.461538461538463%" stop-color="#ffe7fa" stop-opacity="1"></stop><stop offset="71.53846153846153%" stop-color="#ffffff" stop-opacity="1"></stop></linearGradient></defs><defs><linearGradient id="grad2_0" x1="0%" y1="0%" x2="92.9%" y2="100%"><stop offset="28.461538461538463%" stop-color="#fa3cd7" stop-opacity="1"></stop><stop offset="71.53846153846153%" stop-color="#fa3cd7" stop-opacity="1"></stop></linearGradient></defs><defs><linearGradient id="grad2_1" x1="0%" y1="0%" x2="92.9%" y2="100%"><stop offset="28.461538461538463%" stop-color="#fe64dd" stop-opacity="1"></stop><stop offset="71.53846153846153%" stop-color="#fa3cd7" stop-opacity="1"></stop></linearGradient></defs><defs><linearGradient id="grad2_2" x1="0%" y1="0%" x2="92.9%" y2="100%"><stop offset="28.461538461538463%" stop-color="#fe64dd" stop-opacity="1"></stop><stop offset="71.53846153846153%" stop-color="#ff82e3" stop-opacity="1"></stop></linearGradient></defs><defs><linearGradient id="grad2_3" x1="0%" y1="0%" x2="92.9%" y2="100%"><stop offset="28.461538461538463%" stop-color="#ff9ee9" stop-opacity="1"></stop><stop offset="71.53846153846153%" stop-color="#ff82e3" stop-opacity="1"></stop></linearGradient></defs><defs><linearGradient id="grad2_4" x1="0%" y1="0%" x2="92.9%" y2="100%"><stop offset="28.461538461538463%" stop-color="#ff9ee9" stop-opacity="1"></stop><stop offset="71.53846153846153%" stop-color="#ffb7ee" stop-opacity="1"></stop></linearGradient></defs><defs><linearGradient id="grad2_5" x1="0%" y1="0%" x2="92.9%" y2="100%"><stop offset="28.461538461538463%" stop-color="#ffd0f4" stop-opacity="1"></stop><stop offset="71.53846153846153%" stop-color="#ffb7ee" stop-opacity="1"></stop></linearGradient></defs><defs><linearGradient id="grad2_6" x1="0%" y1="0%" x2="92.9%" y2="100%"><stop offset="28.461538461538463%" stop-color="#ffd0f4" stop-opacity="1"></stop><stop offset="71.53846153846153%" stop-color="#ffe7fa" stop-opacity="1"></stop></linearGradient></defs><defs><linearGradient id="grad2_7" x1="0%" y1="0%" x2="92.9%" y2="100%"><stop offset="28.461538461538463%" stop-color="#ffffff" stop-opacity="1"></stop><stop offset="71.53846153846153%" stop-color="#ffe7fa" stop-opacity="1"></stop></linearGradient></defs><g transform="translate(1400, 0)"><path d="M0 477.6C-53.2 448.7 -106.4 419.7 -166.1 401C-225.8 382.2 -292 373.7 -337.7 337.7C-383.5 301.8 -408.8 238.4 -428.7 177.6C-448.6 116.7 -463.1 58.4 -477.6 0L0 0Z" fill="#fff3fc"></path><path d="M0 417.9C-46.5 392.6 -93.1 367.2 -145.3 350.8C-197.6 334.4 -255.5 327 -295.5 295.5C-335.5 264.1 -357.7 208.6 -375.1 155.4C-392.5 102.1 -405.2 51.1 -417.9 0L0 0Z" fill="#ffdcf7"></path><path d="M0 358.2C-39.9 336.5 -79.8 314.8 -124.6 300.7C-169.3 286.7 -219 280.3 -253.3 253.3C-287.6 226.3 -306.6 178.8 -321.5 133.2C-336.4 87.5 -347.3 43.8 -358.2 0L0 0Z" fill="#ffc3f1"></path><path d="M0 298.5C-33.2 280.4 -66.5 262.3 -103.8 250.6C-141.1 238.9 -182.5 233.6 -211.1 211.1C-239.7 188.6 -255.5 149 -267.9 111C-280.4 72.9 -289.4 36.5 -298.5 0L0 0Z" fill="#ffabec"></path><path d="M0 238.8C-26.6 224.3 -53.2 209.9 -83 200.5C-112.9 191.1 -146 186.8 -168.9 168.9C-191.7 150.9 -204.4 119.2 -214.3 88.8C-224.3 58.4 -231.6 29.2 -238.8 0L0 0Z" fill="#ff90e6"></path><path d="M0 179.1C-19.9 168.3 -39.9 157.4 -62.3 150.4C-84.7 143.3 -109.5 140.1 -126.6 126.6C-143.8 113.2 -153.3 89.4 -160.8 66.6C-168.2 43.8 -173.7 21.9 -179.1 0L0 0Z" fill="#ff74e0"></path><path d="M0 119.4C-13.3 112.2 -26.6 104.9 -41.5 100.2C-56.4 95.6 -73 93.4 -84.4 84.4C-95.9 75.4 -102.2 59.6 -107.2 44.4C-112.1 29.2 -115.8 14.6 -119.4 0L0 0Z" fill="#fc52da"></path><path d="M0 59.7C-6.6 56.1 -13.3 52.5 -20.8 50.1C-28.2 47.8 -36.5 46.7 -42.2 42.2C-47.9 37.7 -51.1 29.8 -53.6 22.2C-56.1 14.6 -57.9 7.3 -59.7 0L0 0Z" fill="#fa3cd7"></path></g><g transform="translate(0, 1300)"><path d="M0 -477.6C64.6 -474.1 129.3 -470.5 182.8 -441.3C236.3 -412.1 278.7 -357.2 304.8 -304.8C330.9 -252.3 340.7 -202.3 366.8 -151.9C392.9 -101.5 435.3 -50.8 477.6 0L0 0Z" fill="#fff3fc"></path><path d="M0 -417.9C56.6 -414.8 113.1 -411.7 159.9 -386.1C206.8 -360.5 243.8 -312.5 266.7 -266.7C289.5 -220.8 298.1 -177 320.9 -132.9C343.8 -88.8 380.8 -44.4 417.9 0L0 0Z" fill="#ffdcf7"></path><path d="M0 -358.2C48.5 -355.5 97 -352.9 137.1 -331C177.2 -309 209 -267.9 228.6 -228.6C248.1 -189.2 255.5 -151.7 275.1 -113.9C294.7 -76.2 326.4 -38.1 358.2 0L0 0Z" fill="#ffc3f1"></path><path d="M0 -298.5C40.4 -296.3 80.8 -294.1 114.2 -275.8C147.7 -257.5 174.2 -223.2 190.5 -190.5C206.8 -157.7 212.9 -126.4 229.2 -95C245.5 -63.5 272 -31.7 298.5 0L0 0Z" fill="#ffabec"></path><path d="M0 -238.8C32.3 -237 64.6 -235.2 91.4 -220.6C118.1 -206 139.3 -178.6 152.4 -152.4C165.4 -126.2 170.3 -101.2 183.4 -76C196.4 -50.8 217.6 -25.4 238.8 0L0 0Z" fill="#ff90e6"></path><path d="M0 -179.1C24.2 -177.8 48.5 -176.4 68.5 -165.5C88.6 -154.5 104.5 -133.9 114.3 -114.3C124.1 -94.6 127.8 -75.9 137.5 -57C147.3 -38.1 163.2 -19 179.1 0L0 0Z" fill="#ff74e0"></path><path d="M0 -119.4C16.2 -118.5 32.3 -117.6 45.7 -110.3C59.1 -103 69.7 -89.3 76.2 -76.2C82.7 -63.1 85.2 -50.6 91.7 -38C98.2 -25.4 108.8 -12.7 119.4 0L0 0Z" fill="#fc52da"></path><path d="M0 -59.7C8.1 -59.3 16.2 -58.8 22.8 -55.2C29.5 -51.5 34.8 -44.6 38.1 -38.1C41.4 -31.5 42.6 -25.3 45.8 -19C49.1 -12.7 54.4 -6.3 59.7 0L0 0Z" fill="#fa3cd7"></path></g></svg>