<svg id="visual" viewBox="0 0 500 75" width="500" height="75" xmlns="http://www.w3.org/2000/svg" xmlns:xlink="http://www.w3.org/1999/xlink" version="1.1"><g><g transform="translate(414 67)"><path d="M23.2 -7.3C26.9 3.9 24.6 17.4 16.4 23.6C8.2 29.7 -5.9 28.7 -15.4 21.7C-24.9 14.7 -29.8 1.7 -26.4 -9C-23.1 -19.7 -11.5 -28.1 -0.9 -27.8C9.7 -27.5 19.5 -18.5 23.2 -7.3Z" stroke="#fa3cd7" fill="none" stroke-width="6"></path></g><g transform="translate(155 7)"><path d="M17.6 -5.5C20 1.6 17.1 10.6 10.7 15.4C4.2 20.3 -5.7 20.9 -12.1 16.4C-18.5 11.8 -21.3 2 -18.7 -5.4C-16.1 -12.8 -8.1 -17.7 -0.2 -17.7C7.6 -17.6 15.2 -12.5 17.6 -5.5Z" stroke="#fa3cd7" fill="none" stroke-width="6"></path></g><g transform="translate(2 69)"><path d="M17.2 -5.4C19.6 1.9 17.1 11 11.2 15.3C5.2 19.6 -4.2 19.1 -9.9 14.7C-15.7 10.2 -17.9 1.8 -15.7 -5.2C-13.4 -12.2 -6.7 -17.9 0.3 -18C7.4 -18.1 14.8 -12.7 17.2 -5.4Z" stroke="#fa3cd7" fill="none" stroke-width="6"></path></g></g></svg>