<svg aria-hidden="true" style="position: absolute; width: 0; height: 0; overflow: hidden;" version="1.1" xmlns="http://www.w3.org/2000/svg" xmlns:xlink="http://www.w3.org/1999/xlink">
<defs>
<symbol id="icon-pencil" viewBox="0 0 32 32">
<path d="M30.173 7.542l-0.314 0.314-5.726-5.729 0.313-0.313c0 0 1.371-1.813 3.321-1.813 0.859 0 1.832 0.353 2.849 1.37 3.354 3.354-0.443 6.171-0.443 6.171zM27.979 9.737l-19.499 19.506-8.48 2.757 2.756-8.485v-0.003h0.002l19.496-19.505 0.252 0.253zM2.76 29.239l4.237-1.219-2.894-3.082-1.343 4.301z"></path>
</symbol>
<symbol id="icon-pencil1" viewBox="0 0 32 32">
<path d="M27 0c2.761 0 5 2.239 5 5 0 1.126-0.372 2.164-1 3l-2 2-7-7 2-2c0.836-0.628 1.874-1 3-1zM2 23l-2 9 9-2 18.5-18.5-7-7-18.5 18.5zM22.362 11.362l-14 14-1.724-1.724 14-14 1.724 1.724z"></path>
</symbol>
<symbol id="icon-plus" viewBox="0 0 32 32">
<path d="M31 12h-11v-11c0-0.552-0.448-1-1-1h-6c-0.552 0-1 0.448-1 1v11h-11c-0.552 0-1 0.448-1 1v6c0 0.552 0.448 1 1 1h11v11c0 0.552 0.448 1 1 1h6c0.552 0 1-0.448 1-1v-11h11c0.552 0 1-0.448 1-1v-6c0-0.552-0.448-1-1-1z"></path>
</symbol>
<symbol id="icon-ungroup" viewBox="0 0 32 32">
<path d="M12 14.5c0 0.825-0.675 1.5-1.5 1.5h-3c-0.825 0-1.5-0.675-1.5-1.5v-3c0-0.825 0.675-1.5 1.5-1.5h3c0.825 0 1.5 0.675 1.5 1.5v3z"></path>
<path d="M22 14.5c0 0.825-0.675 1.5-1.5 1.5h-3c-0.825 0-1.5-0.675-1.5-1.5v-3c0-0.825 0.675-1.5 1.5-1.5h3c0.825 0 1.5 0.675 1.5 1.5v3z"></path>
<path d="M12 24.5c0 0.825-0.675 1.5-1.5 1.5h-3c-0.825 0-1.5-0.675-1.5-1.5v-3c0-0.825 0.675-1.5 1.5-1.5h3c0.825 0 1.5 0.675 1.5 1.5v3z"></path>
<path d="M22 24.5c0 0.825-0.675 1.5-1.5 1.5h-3c-0.825 0-1.5-0.675-1.5-1.5v-3c0-0.825 0.675-1.5 1.5-1.5h3c0.825 0 1.5 0.675 1.5 1.5v3z"></path>
<path d="M28.503 5l3.497-3.497v-1.503h-1.503l-3.497 3.497-3.497-3.497h-1.503v1.503l3.497 3.497-3.497 3.497v1.503h1.503l3.497-3.497 3.497 3.497h1.503v-1.503z"></path>
<path d="M0 24h2v4h-2v-4z"></path>
<path d="M0 18h2v4h-2v-4z"></path>
<path d="M26 14h2v4h-2v-4z"></path>
<path d="M26 26h2v4h-2v-4z"></path>
<path d="M26 20h2v4h-2v-4z"></path>
<path d="M0 12h2v4h-2v-4z"></path>
<path d="M0 6h2v4h-2v-4z"></path>
<path d="M16 4h4v2h-4v-2z"></path>
<path d="M10 4h4v2h-4v-2z"></path>
<path d="M4 4h4v2h-4v-2z"></path>
<path d="M14 30h4v2h-4v-2z"></path>
<path d="M20 30h4v2h-4v-2z"></path>
<path d="M8 30h4v2h-4v-2z"></path>
<path d="M2 30h4v2h-4v-2z"></path>
</symbol>
</defs>
</svg>
